<svg xmlns="http://www.w3.org/2000/svg" width="16" height="17"><path fill="#fff" d="M8.934 9.934c-.767.769-1.69 1.151-2.771 1.151s-2.003-.384-2.77-1.151c-.768-.767-1.151-1.69-1.151-2.771 0-1.08.383-2.003 1.151-2.771.767-.767 1.69-1.151 2.77-1.151s2.003.383 2.771 1.151c.769.767 1.151 1.691 1.151 2.771s-.384 2.004-1.151 2.771zm6.623 5.005l-4.314-4.283c.724-1.045 1.085-2.209 1.085-3.493 0-.834-.162-1.632-.486-2.394-.323-.762-.762-1.418-1.312-1.97-.553-.551-1.212-.989-1.971-1.313-.763-.324-1.561-.486-2.396-.486s-1.633.162-2.394.486c-.762.324-1.418.762-1.97 1.313-.551.552-.989 1.208-1.313 1.97-.324.762-.486 1.56-.486 2.394 0 .835.162 1.633.486 2.396.324.762.762 1.418 1.313 1.969.551.553 1.208.99 1.97 1.312.761.324 1.56.486 2.394.486 1.284 0 2.448-.361 3.493-1.085l4.314 4.274c.211.223.473.332.787.332.305 0 .566-.109.788-.332s.333-.484.333-.789c.002-.307-.107-.57-.321-.787z"/><path fill="#454545" d="M8.934 8.934c-.767.768-1.69 1.151-2.771 1.151s-2.003-.384-2.77-1.151c-.768-.767-1.151-1.69-1.151-2.771 0-1.08.383-2.003 1.151-2.771.767-.767 1.69-1.151 2.77-1.151s2.003.383 2.771 1.151c.769.767 1.151 1.691 1.151 2.771s-.384 2.004-1.151 2.771zm6.623 5.005l-4.314-4.283c.724-1.045 1.085-2.209 1.085-3.493 0-.834-.162-1.632-.486-2.394-.323-.762-.762-1.418-1.312-1.97-.553-.551-1.212-.989-1.971-1.313-.763-.324-1.561-.486-2.396-.486s-1.633.162-2.394.486c-.762.324-1.418.762-1.97 1.313-.551.552-.989 1.208-1.313 1.97-.324.762-.486 1.56-.486 2.394 0 .835.162 1.633.486 2.395.324.762.762 1.419 1.313 1.969.551.553 1.208.99 1.97 1.312.761.324 1.56.486 2.394.486 1.284 0 2.448-.361 3.493-1.085l4.314 4.274c.211.223.473.332.787.332.305 0 .566-.109.788-.332s.333-.484.333-.789c.002-.306-.107-.569-.321-.786z"/></svg>
